<?xml version="1.0" encoding="UTF-8"?>
<!DOCTYPE svg PUBLIC "-//W3C//DTD SVG 1.1//EN" "http://www.w3.org/Graphics/SVG/1.1/DTD/svg11.dtd">
<!-- Creator: CorelDRAW 2019 (64-Bit) -->
<svg xmlns="http://www.w3.org/2000/svg" xml:space="preserve" width="2000px" height="2261px" version="1.1" style="shape-rendering:geometricPrecision; text-rendering:geometricPrecision; image-rendering:optimizeQuality; fill-rule:evenodd; clip-rule:evenodd"
viewBox="0 0 1991.31 2251.57"
 xmlns:xlink="http://www.w3.org/1999/xlink"
 xmlns:xodm="http://www.corel.com/coreldraw/odm/2003">
 <defs>
  <style type="text/css">
   <![CDATA[
    .str0 {stroke:black;stroke-width:0.92;stroke-miterlimit:22.9256}
    .fil0 {fill:none}
   ]]>
  </style>
 </defs>
 <g id="Ebene_x0020_1">
  <metadata id="CorelCorpID_0Corel-Layer"/>
  <path class="fil0 str0" d="M84.41 593.28l886.05 0 395.36 395.37 0 754.27 -64.95 0 0 -754.27 -330.41 0 0 -330.41 -877.14 0c-15.94,0 -28.99,13.04 -28.99,28.99l0 1469.93c0,15.95 13.05,28.99 28.99,28.99l1178.56 0c15.94,0 28.99,-13.04 28.99,-28.99l0 -414.24 64.95 0 0 424.24c0,46.18 -37.77,83.95 -83.95,83.95l-1197.46 0c-46.18,0 -83.95,-37.77 -83.95,-83.95l0 -1489.93c0,-46.17 37.77,-83.95 83.95,-83.95l0 0zm117.06 1260.93l479.25 0 0 85.06 -479.25 0 0 -85.06zm0 -201.18l945.43 0 0 85.05 -945.43 0 0 -85.05zm0 -201.19l472.72 0 0 85.05 -472.72 0 0 -85.05zm0 -201.19l765.56 0 0 85.06 -765.56 0 0 -85.06zm0 -201.19l304.24 0 0 85.06 -304.24 0 0 -85.06zm0 -201.19l304.24 0 0 85.05 -304.24 0 0 -85.05z"/>
  <g id="_1964075832864">
   <path class="fil0 str0" d="M292.75 395.67l886.05 0 395.37 395.37 0 754.26 -64.95 0 0 -754.26 -330.42 0 0 -330.42 -877.13 0c-15.94,0 -29,13.05 -29,29l0 103.66 -63.87 0 0 -113.65c0,-46.18 37.78,-83.96 83.95,-83.96zm1073.07 1592.88l114.41 0c15.94,0 28.99,-13.04 28.99,-28.99l0 -414.26 64.95 0 0 424.25c0,46.17 -37.78,83.94 -83.96,83.94l-124.39 0 0 -64.94z"/>
   <path class="fil0 str0" d="M501.1 198.07l886.04 0 395.37 395.37 0 754.26 -64.95 0 0 -754.26 -330.42 0 0 -330.42 -877.13 0c-15.95,0 -28.99,13.04 -28.99,28.99l0 103.66 -63.87 0 0 -113.66c0,-46.17 37.77,-83.94 83.95,-83.94l0 0zm1073.07 1592.86l114.39 0c15.95,0 29,-13.04 29,-28.99l0 -414.24 64.95 0 0 424.24c0,46.18 -37.77,83.95 -83.95,83.95l-124.39 0 0 -64.96z"/>
   <path class="fil0 str0" d="M709.44 0.46l886.05 0 395.36 395.36 0 754.26 -64.96 0 0 -754.26 -330.4 0 0 -330.42 -877.14 0c-15.95,0 -28.99,13.05 -28.99,29l0 103.66 -63.87 0 0 -113.65c0,-46.18 37.77,-83.95 83.94,-83.95l0.01 0zm1073.07 1592.87l114.39 0c15.95,0 28.99,-13.04 28.99,-28.99l0 -414.26 64.96 0 0 424.26c0,46.16 -37.77,83.94 -83.95,83.94l-124.39 0 0 -64.95z"/>
  </g>
 </g>
</svg>
