<?xml version="1.0" encoding="UTF-8"?>
<!DOCTYPE svg PUBLIC "-//W3C//DTD SVG 1.1//EN" "http://www.w3.org/Graphics/SVG/1.1/DTD/svg11.dtd">
<!-- Creator: CorelDRAW 2019 (64-Bit) -->
<svg xmlns="http://www.w3.org/2000/svg" xml:space="preserve" width="3123px" height="3123px" version="1.1" style="shape-rendering:geometricPrecision; text-rendering:geometricPrecision; image-rendering:optimizeQuality; fill-rule:evenodd; clip-rule:evenodd"
viewBox="0 0 3118.25 3118.25"
 xmlns:xlink="http://www.w3.org/1999/xlink"
 xmlns:xodm="http://www.corel.com/coreldraw/odm/2003">
 <defs>
  <style type="text/css">
   <![CDATA[
    .str0 {stroke:black;stroke-width:2.36;stroke-miterlimit:22.9256}
    .fil0 {fill:none}
    .fil1 {fill:black}
   ]]>
  </style>
 </defs>
 <g id="Ebene_x0020_1">
  <metadata id="CorelCorpID_0Corel-Layer"/>
  <rect class="fil0 str0" x="1.18" y="1.18" width="3115.89" height="3115.89"/>
  <path class="fil1" d="M1959.36 2440.89c-116.49,45.38 -270.77,70.37 -434.43,70.37 -163.66,0 -317.95,-24.99 -434.44,-70.37 -124.83,-48.63 -193.58,-116.59 -193.58,-191.36l0 -432.77 0 -432.77 0 -432.78c0,-74.77 68.75,-142.73 193.58,-191.36 116.49,-45.38 270.78,-70.37 434.44,-70.37 163.66,0 317.94,24.99 434.43,70.38 124.78,48.6 193.52,116.53 193.58,191.27 0,0.02 0,0.05 0,0.08l0 432.77 0 0.01 0 0 0 432.77 0 0 0 0 0 432.77c0,74.77 -68.75,142.73 -193.58,191.36zm-20.36 -1628.87c-110.16,-42.9 -257.21,-66.54 -414.07,-66.54 -156.87,0 -303.92,23.64 -414.07,66.55 -100.35,39.08 -157.89,89.82 -157.89,139.18 0,49.36 57.54,100.09 157.89,139.18 110.15,42.9 257.2,66.54 414.07,66.54 58.82,0 116.26,-3.32 170.9,-9.75 91.06,-10.69 174.32,-29.97 243.17,-56.79 100.33,-39.09 157.88,-89.82 157.88,-139.18 0,-49.37 -57.54,-100.1 -157.88,-139.19zm157.89 250.47c-0.05,0.05 -0.11,0.1 -0.16,0.15 -0.48,0.44 -0.98,0.87 -1.46,1.31 -38.83,35.26 -87.37,59.71 -135.9,78.61 -76.45,29.78 -169.17,50.78 -270.14,61.7 -52.89,5.72 -108.04,8.67 -164.3,8.67 -163.66,0 -317.95,-24.99 -434.43,-70.37 -49.45,-19.26 -98.16,-43.64 -137.4,-79.94 -0.04,-0.04 -0.08,-0.08 -0.13,-0.12l0 321.48c0,49.36 57.55,100.09 157.89,139.18 92.94,36.21 212.15,58.69 341.36,64.83 24.22,1.16 48.46,1.72 72.71,1.72 173.44,0 377.82,-12.75 519.96,-123.44 18.88,-14.71 36.52,-32.11 46.03,-54.46 3.73,-8.75 5.97,-18.29 5.97,-27.82l0 -321.5zm0 432.77c-0.04,0.03 -0.08,0.07 -0.12,0.11 -8.99,8.25 -18.51,15.92 -28.45,23.02 -61.86,44.15 -136.09,70.07 -209.18,88.67 -60.47,15.39 -127.03,26.42 -197.15,32.65 -0.61,0.05 -1.22,0.12 -1.83,0.17 -23.07,2.02 -46.53,3.51 -70.27,4.49 -21.44,0.88 -43.11,1.34 -64.96,1.34 -163.66,0 -317.94,-24.99 -434.43,-70.37 -48.58,-18.92 -96.84,-43.21 -135.71,-78.44 -0.55,-0.5 -1.12,-0.99 -1.67,-1.5 -0.05,-0.04 -0.09,-0.08 -0.14,-0.13l0 321.49c0,49.36 57.54,100.1 157.88,139.18 110.16,42.91 257.21,66.54 414.07,66.54 42.28,0 83.83,-1.73 124.15,-5.08 2.89,-0.24 5.78,-0.49 8.66,-0.74 105.91,-9.45 202.92,-30.2 281.26,-60.72 42.8,-16.67 77.78,-35.46 103.86,-55.36 21.96,-16.75 43.59,-37.97 51.37,-65.27 0.05,-0.18 0.08,-0.37 0.14,-0.55 1.63,-5.86 2.52,-11.91 2.52,-18l0 -321.5zm0.01 432.78c-0.05,0.04 -0.09,0.07 -0.13,0.12 -0.62,0.56 -1.27,1.12 -1.89,1.69 -9.08,8.21 -18.7,15.81 -28.73,22.84 -32.95,23.08 -69.35,40.85 -106.78,55.43 -101.44,39.5 -231.53,63.55 -371.51,69.11 -20.78,0.82 -41.77,1.25 -62.92,1.25 -163.66,0 -317.95,-24.99 -434.43,-70.37 -48.7,-18.97 -96.53,-42.95 -135.52,-78.27 -0.62,-0.56 -1.27,-1.12 -1.88,-1.68 -0.04,-0.04 -0.09,-0.08 -0.13,-0.12l0 321.49c0,49.35 57.54,100.09 157.88,139.17 110.16,42.92 257.21,66.55 414.07,66.55 156.87,0 303.92,-23.63 414.08,-66.55 100.33,-39.08 157.88,-89.81 157.88,-139.17l0 0 0.01 0 0 -321.49zm-100.25 287.79c-28.28,0 -51.21,-22.91 -51.21,-51.17 0,-28.26 22.93,-51.17 51.21,-51.17 28.29,0 51.22,22.91 51.22,51.17 0,28.26 -22.93,51.17 -51.22,51.17zm-177.75 53.54c-28.28,0 -51.21,-22.91 -51.21,-51.17 0,-28.26 22.93,-51.17 51.21,-51.17 28.29,0 51.22,22.91 51.22,51.17 0,28.26 -22.93,51.17 -51.22,51.17zm-188.62 29.31c-28.29,0 -51.22,-22.91 -51.22,-51.17 0,-28.26 22.93,-51.17 51.22,-51.17 28.28,0 51.21,22.91 51.21,51.17 0,28.26 -22.93,51.17 -51.21,51.17zm366.37 -511.94c-28.28,0 -51.21,-22.91 -51.21,-51.17 0,-28.26 22.93,-51.17 51.21,-51.17 28.29,0 51.22,22.91 51.22,51.17 0,28.26 -22.93,51.17 -51.22,51.17zm-177.75 53.58c-28.28,0 -51.21,-22.91 -51.21,-51.17 0,-28.27 22.93,-51.17 51.21,-51.17 28.29,0 51.22,22.9 51.22,51.17 0,28.26 -22.93,51.17 -51.22,51.17zm-188.62 29.31c-28.29,0 -51.22,-22.92 -51.22,-51.18 0,-28.26 22.93,-51.17 51.22,-51.17 28.28,0 51.21,22.91 51.21,51.17 0,28.26 -22.93,51.18 -51.21,51.18zm366.37 -519.45c-28.28,0 -51.21,-22.9 -51.21,-51.17 0,-28.26 22.93,-51.17 51.21,-51.17 28.29,0 51.22,22.91 51.22,51.17 0,28.27 -22.93,51.17 -51.22,51.17zm-177.75 53.58c-28.28,0 -51.21,-22.91 -51.21,-51.17 0,-28.26 22.93,-51.17 51.21,-51.17 28.29,0 51.22,22.91 51.22,51.17 0,28.26 -22.93,51.17 -51.22,51.17zm-188.62 29.31c-28.29,0 -51.22,-22.91 -51.22,-51.17 0,-28.26 22.93,-51.17 51.22,-51.17 28.28,0 51.21,22.91 51.21,51.17 0,28.26 -22.93,51.17 -51.21,51.17z"/>
 </g>
</svg>
