<?xml version="1.0" encoding="UTF-8"?>
<!DOCTYPE svg PUBLIC "-//W3C//DTD SVG 1.1//EN" "http://www.w3.org/Graphics/SVG/1.1/DTD/svg11.dtd">
<!-- Creator: CorelDRAW 2019 (64-Bit) -->
<svg xmlns="http://www.w3.org/2000/svg" xml:space="preserve" width="3431px" height="2607px" version="1.1" style="shape-rendering:geometricPrecision; text-rendering:geometricPrecision; image-rendering:optimizeQuality; fill-rule:evenodd; clip-rule:evenodd"
viewBox="0 0 3423.55 2600.92"
 xmlns:xlink="http://www.w3.org/1999/xlink"
 xmlns:xodm="http://www.corel.com/coreldraw/odm/2003">
 <defs>
  <style type="text/css">
   <![CDATA[
    .str0 {stroke:black;stroke-width:0.9;stroke-miterlimit:22.9256}
    .fil0 {fill:none}
   ]]>
  </style>
 </defs>
 <g id="Ebene_x0020_1">
  <metadata id="CorelCorpID_0Corel-Layer"/>
  <path class="fil0 str0" d="M1487.74 1633.99l0 -829.99 -444.71 0 699.13 -803.32 699.08 803.32 -444.71 0 0 829.99 -508.79 0 0 0zm1664.23 -127.78c74.57,0 142.35,30.49 191.5,79.63 49.13,49.11 79.63,116.9 79.63,191.47l0 551.97c0,74.59 -30.5,142.39 -79.63,191.54 -49.15,49.13 -116.93,79.65 -191.5,79.65 -785.83,0 -984.01,0 -2880.38,0 -74.59,0 -142.38,-30.5 -191.51,-79.65 -49.13,-49.13 -79.63,-116.95 -79.63,-191.54l0 -551.97c0,-74.57 30.5,-142.36 79.63,-191.49 49.13,-49.13 116.92,-79.61 191.51,-79.61l837.15 0 0 101.64c0,150.45 123.11,273.56 273.58,273.56l658.88 0c150.45,0 273.56,-123.11 273.56,-273.56l0 -101.64 837.21 0 0 0zm-120.45 529.59c88.68,0 160.6,71.92 160.6,160.6 0,88.65 -71.92,160.57 -160.6,160.57 -88.71,0 -160.57,-71.92 -160.57,-160.57 0,-88.68 71.86,-160.6 160.57,-160.6zm-531.8 0c88.69,0 160.57,71.92 160.57,160.6 0,88.65 -71.88,160.57 -160.57,160.57 -88.65,0 -160.6,-71.92 -160.6,-160.57 0,-88.68 71.95,-160.6 160.6,-160.6z"/>
 </g>
</svg>
